<svg width="19" height="19" viewBox="0 0 19 19" fill="none" xmlns="http://www.w3.org/2000/svg">
<path fill-rule="evenodd" clip-rule="evenodd" d="M7.55408 0.833984C4.85034 0.833984 2.67925 3.00475 2.67925 5.70882C2.67925 8.41226 4.85063 10.5837 7.55408 10.5837C10.2581 10.5837 12.4289 8.41256 12.4289 5.70882C12.4289 3.00445 10.2584 0.833984 7.55408 0.833984ZM7.55408 2.20898C9.49905 2.20898 11.0539 3.76385 11.0539 5.70882C11.0539 7.65321 9.49871 9.20865 7.55408 9.20865C5.61003 9.20865 4.05425 7.65287 4.05425 5.70882C4.05425 3.76419 5.60968 2.20898 7.55408 2.20898ZM7.55408 12.2523C2.94324 12.2523 0.333496 13.1272 0.333496 15.6063C0.333496 18.0882 2.95482 18.9797 7.55408 18.9797L8.14395 18.9747C12.3858 18.9005 14.7747 17.9963 14.7747 15.6256C14.7747 13.1976 12.2661 12.2918 7.85122 12.2535L7.55408 12.2523ZM7.55408 13.6273C11.4054 13.6273 13.3997 14.3054 13.3997 15.6256C13.3997 16.9375 11.4103 17.6047 7.55408 17.6047C3.70274 17.6047 1.7085 16.9265 1.7085 15.6063C1.7085 14.3293 3.59074 13.6638 7.24542 13.6287L7.55408 13.6273ZM16.1036 6.25992C16.4516 6.25992 16.7393 6.51856 16.7848 6.85413L16.7911 6.94742V8.09774H17.979C18.3587 8.09774 18.6665 8.40555 18.6665 8.78524C18.6665 9.1333 18.4078 9.42094 18.0723 9.46647L17.979 9.47274H16.7911V10.6233C16.7911 11.0029 16.4832 11.3108 16.1036 11.3108C15.7555 11.3108 15.4679 11.0521 15.4223 10.7165L15.4161 10.6233V9.47274H14.2298C13.8501 9.47274 13.5423 9.16494 13.5423 8.78524C13.5423 8.43719 13.8009 8.14954 14.1365 8.10402L14.2298 8.09774H15.4161V6.94742C15.4161 6.56772 15.7239 6.25992 16.1036 6.25992Z" fill="#200E32"/>
</svg>
