<svg width="24" height="24" viewBox="0 0 24 24" fill="none" xmlns="http://www.w3.org/2000/svg">
<path fill-rule="evenodd" clip-rule="evenodd" d="M7.7599 6.21376C7.7599 5.12681 6.86462 4.24192 5.76229 4.24192C4.66113 4.24192 3.76467 5.12681 3.76467 6.21376C3.76467 7.30072 4.66113 8.18561 5.76229 8.18561C6.86462 8.18561 7.7599 7.30072 7.7599 6.21376ZM9.52457 6.21376C9.52457 8.26109 7.83754 9.92753 5.76229 9.92753C3.68821 9.92753 2 8.26109 2 6.21376C2 4.16643 3.68821 2.5 5.76229 2.5C7.83754 2.5 9.52457 4.16643 9.52457 6.21376ZM22 6.214C22 5.73323 21.6047 5.34304 21.1177 5.34304H13.8825C13.3954 5.34304 13.0002 5.73323 13.0002 6.214C13.0002 6.69476 13.3954 7.08495 13.8825 7.08495H21.1177C21.6047 7.08495 22 6.69476 22 6.214ZM16.2393 17.788C16.2393 18.8749 17.1346 19.7598 18.2369 19.7598C19.3392 19.7598 20.2345 18.8749 20.2345 17.788C20.2345 16.6999 19.3392 15.8161 18.2369 15.8161C17.1346 15.8161 16.2393 16.6999 16.2393 17.788ZM14.4746 17.788C14.4746 15.7395 16.1616 14.0742 18.2369 14.0742C20.3122 14.0742 21.9992 15.7395 21.9992 17.788C21.9992 19.8353 20.3122 21.5017 18.2369 21.5017C16.1616 21.5017 14.4746 19.8353 14.4746 17.788ZM2.88316 16.9149H10.1172C10.6042 16.9149 10.9995 17.3051 10.9995 17.7859C10.9995 18.2667 10.6042 18.6568 10.1172 18.6568H2.88316C2.39611 18.6568 2.00082 18.2667 2.00082 17.7859C2.00082 17.3051 2.39611 16.9149 2.88316 16.9149Z" fill="black"/>
</svg>
