<svg width="14" height="14" viewBox="0 0 14 14" fill="none" xmlns="http://www.w3.org/2000/svg">
<path fill-rule="evenodd" clip-rule="evenodd" d="M7.00016 12.2497C4.10566 12.2497 1.75016 9.89475 1.75016 6.99967C1.75016 4.10517 4.10566 1.74967 7.00016 1.74967C9.89525 1.74967 12.2502 4.10517 12.2502 6.99967C12.2502 9.89475 9.89525 12.2497 7.00016 12.2497ZM7.00016 0.583008C3.46225 0.583008 0.583496 3.46176 0.583496 6.99967C0.583496 10.5376 3.46225 13.4163 7.00016 13.4163C10.5381 13.4163 13.4168 10.5376 13.4168 6.99967C13.4168 3.46176 10.5381 0.583008 7.00016 0.583008ZM7.72764 3.62927C6.51489 3.20402 5.17964 3.84219 4.75206 5.0561C4.64531 5.36002 4.80514 5.6931 5.10906 5.79985C5.41356 5.9066 5.74664 5.74677 5.85281 5.44344C6.06689 4.83677 6.73422 4.51652 7.34089 4.73002C7.80814 4.89394 8.1208 5.33727 8.12022 5.8331C8.12022 6.43627 7.11864 6.9111 6.76864 7.02952C6.46355 7.1316 6.29789 7.46177 6.39997 7.76744C6.48164 8.01185 6.70914 8.16644 6.95356 8.16644C7.01422 8.16644 7.07664 8.15652 7.13789 8.1361C7.3578 8.06319 9.28689 7.37544 9.28689 5.83369C9.28864 4.84377 8.66214 3.95769 7.72764 3.62927ZM6.586 9.50332C6.80766 9.28749 7.1985 9.28749 7.41433 9.50332C7.46683 9.55582 7.50766 9.61999 7.53683 9.69582C7.566 9.76582 7.5835 9.84165 7.5835 9.91749C7.5835 10.0744 7.52516 10.2202 7.41433 10.3258C7.3035 10.4367 7.15766 10.5008 7.00016 10.5008C6.84266 10.5008 6.69683 10.4367 6.586 10.3258C6.5335 10.2727 6.49266 10.2092 6.4635 10.1392C6.43433 10.0692 6.41683 9.99332 6.41683 9.91749C6.41683 9.84165 6.43433 9.76582 6.4635 9.69582C6.49266 9.61999 6.5335 9.55582 6.586 9.50332Z" fill="#6B6B6B"/>
</svg>
