<svg width="12" height="12" viewBox="0 0 12 12" fill="none" xmlns="http://www.w3.org/2000/svg">
<path fill-rule="evenodd" clip-rule="evenodd" d="M2.16258 11.0747C2.31658 11.3623 2.61699 11.5419 2.94366 11.5413C3.08133 11.5419 3.21783 11.5098 3.34033 11.448L5.99566 10.0597C6.00266 10.0556 6.01083 10.0533 6.01899 10.0538L8.65624 11.4305C8.78399 11.4993 8.92691 11.5349 9.07158 11.5343C9.11766 11.5343 9.16432 11.5303 9.20983 11.5238C9.68466 11.4463 10.009 11.0018 9.93899 10.5263L9.42566 7.60384C9.42268 7.59959 9.42188 7.59937 9.42166 7.59888C9.42158 7.5987 9.42158 7.59848 9.42158 7.59801C9.42158 7.59626 9.42566 7.59217 9.42566 7.59217L11.5665 5.52134C11.8827 5.21626 11.9229 4.72451 11.6598 4.37217C11.5169 4.18784 11.3075 4.06651 11.0765 4.03384L8.12366 3.60801C8.11841 3.60801 8.11258 3.60217 8.10674 3.59634L6.78783 0.948008C6.63908 0.648758 6.33458 0.459758 6.00033 0.458008C5.90349 0.458008 5.80666 0.473174 5.71449 0.504674C5.49341 0.579924 5.31083 0.738591 5.20699 0.948008L3.88983 3.58876C3.88983 3.60101 3.87758 3.60626 3.86591 3.60626L0.920075 4.03209C0.739825 4.06242 0.571826 4.14292 0.435909 4.26542C0.263826 4.43401 0.166992 4.66559 0.166992 4.90709C0.167576 5.13634 0.259742 5.35567 0.423659 5.51551L2.58199 7.59217C2.58666 7.59684 2.58841 7.60326 2.58841 7.60967L2.06866 10.5205C2.03774 10.7107 2.07099 10.9055 2.16258 11.0747ZM5.98339 1.31337L5.98922 1.30928H6.0003L6.00555 1.31453C6.0108 1.31453 6.01547 1.3157 6.01955 1.3192C6.02305 1.3227 6.0248 1.32737 6.02422 1.33262L7.34255 3.9687C7.46914 4.22828 7.7153 4.40912 8.00114 4.45287L10.954 4.8822C10.9592 4.8822 10.9645 4.88337 10.9691 4.8857C10.9721 4.88628 10.9744 4.88628 10.9773 4.8857L10.9831 4.89095L10.9773 4.90378L8.83647 6.97987C8.62355 7.17937 8.52847 7.47453 8.58505 7.76095L9.09897 10.6665L9.0873 10.6776H9.07505C9.07272 10.6788 9.07039 10.6788 9.06805 10.6776C9.06222 10.677 9.05639 10.6747 9.05114 10.6718H9.04589L6.42089 9.30095C6.29489 9.23562 6.15489 9.20062 6.01255 9.2012C5.86614 9.2012 5.72147 9.23795 5.59197 9.30678L2.95005 10.6922C2.94714 10.6928 2.94364 10.6928 2.94072 10.6922C2.92847 10.6922 2.91797 10.684 2.91505 10.6724V10.6607L3.42839 7.7557C3.47622 7.47162 3.38289 7.1817 3.17755 6.97987L1.01922 4.90903C1.01864 4.90028 1.0198 4.8927 1.02447 4.88512L1.06005 4.87345L3.99422 4.45287C4.28005 4.40853 4.52564 4.22828 4.6528 3.9687L5.97172 1.3262C5.97464 1.32095 5.97814 1.31628 5.98339 1.31337Z" fill="black"/>
</svg>
