<svg width="10" height="10" viewBox="0 0 10 10" fill="none" xmlns="http://www.w3.org/2000/svg">
<path fill-rule="evenodd" clip-rule="evenodd" d="M4.99967 0.833984C2.69834 0.833984 0.833008 2.69931 0.833008 5.00065C0.833008 7.30199 2.69834 9.16732 4.99967 9.16732C7.30101 9.16732 9.16634 7.30199 9.16634 5.00065C9.16634 2.69931 7.30101 0.833984 4.99967 0.833984ZM4.99967 1.45898C6.95584 1.45898 8.54134 3.04449 8.54134 5.00065C8.54134 6.95681 6.95584 8.54232 4.99967 8.54232C3.04351 8.54232 1.45801 6.95681 1.45801 5.00065C1.45801 3.04449 3.04351 1.45898 4.99967 1.45898ZM5.16853 3.2281C5.14784 3.07557 5.01709 2.95801 4.85889 2.95801C4.6863 2.95801 4.54639 3.09792 4.54639 3.27051V5.29009L4.54987 5.33665C4.56367 5.42834 4.61778 5.51014 4.69879 5.55846L6.26962 6.49555L6.3075 6.51482C6.44909 6.5752 6.61704 6.52314 6.69809 6.38727L6.71737 6.34939C6.77774 6.2078 6.72569 6.03985 6.58982 5.9588L5.17122 5.11222L5.17139 3.27051L5.16853 3.2281Z" fill="black"/>
</svg>
